# xmcd
#
# Track frame offsets:
#	150
#	13304
#	30535
#	48152
#	62063
#	79855
#	92628
#	108645
#	123749
#	140144
#	155123
#	178383
#	195339
#	210726
#	222632
#	240917
#	263691
#	278785
#	285713
#	288367
#	289898
#	291412
#
# Disc length: 3902 seconds
#
# Revision: 1
# Processed by: cddbd v1.5.1PL0 Copyright (c) Steve Scherf et al.
# Submitted via: EasyCDDAExtractor 8.0.1.1
#
DISCID=650f3c16
DTITLE=Various Artist - CDX Volume 372
DYEAR=2005
DGENRE=Country
TTITLE0=Warren Brothers - Change
TTITLE1=Susan Haynes - Crooked Little Heart
TTITLE2=Alison Krauss and Union Station - Goodbye Is All We Have
TTITLE3=Phil Vassar - Good Ole Days
TTITLE4=Lila McCann - I Can Do This
TTITLE5=Gene Watson - I Catch Myself
TTITLE6=Con Hunley - She Ain't You
TTITLE7=C Britt and E John - Where We Both Say Goodbye
TTITLE8=Jenai - Hallelujha
TTITLE9=Jason Boland and Stragglers - My Baby Loves Me When I'm Stoned
TTITLE10=John Reynolds - America More Beautiful
TTITLE11=Brian Stace - I Don't Wanna Wish I Had
TTITLE12=Smith and Harley - Mama's Got A Tattoo
TTITLE13=Randy Huston - There's A Hole In Daddy's Rope
TTITLE14=Paulette Carlson - Thank You Vets Edit
TTITLE15=Paulette Carlson - Thank You Vets Long
TTITLE16=Jessie Goldsberg - I Used To Be A Liberal
TTITLE17=Rivertown - Star Spangled Banner
TTITLE18=Randy Huston - Farm Bureau PSA
TTITLE19=Randy Huston - Farm Bureau PSA
TTITLE20=Randy Huston - Farm Bureau PSA
TTITLE21=Randy Huston - Farm Bureau PSA
EXTD=
EXTT0=
EXTT1=
EXTT2=
EXTT3=
EXTT4=
EXTT5=
EXTT6=
EXTT7=
EXTT8=
EXTT9=
EXTT10=
EXTT11=
EXTT12=
EXTT13=
EXTT14=
EXTT15=
EXTT16=
EXTT17=
EXTT18=
EXTT19=
EXTT20=
EXTT21=
PLAYORDER=
